<svg width="32" height="32" viewBox="0 0 32 32" fill="none" xmlns="http://www.w3.org/2000/svg">
  <g transform="rotate(45 16 16)">
    <path d="M16 4C16 4 20 8 20 12C20 16 16 20 16 20C16 20 12 16 12 12C12 8 16 4 16 4Z" fill="#e6ff00"/>
    <path d="M4 16C4 16 8 20 12 20C16 20 20 16 20 16C20 16 16 12 12 12C8 12 4 16 4 16Z" fill="#e6ff00"/>
    <path d="M16 28C16 28 20 24 20 20C20 16 16 12 16 12C16 12 12 16 12 20C12 24 16 28 16 28Z" fill="#e6ff00"/>
    <path d="M28 16C28 16 24 20 20 20C16 20 12 16 12 16C12 16 16 12 20 12C24 12 28 16 28 16Z" fill="#e6ff00"/>
  </g>
  <circle cx="16" cy="16" r="4" fill="#11190c"/>
</svg>